<?xml version="1.0" standalone="no"?>
<!DOCTYPE svg PUBLIC "-//W3C//DTD SVG 20010904//EN"
 "http://www.w3.org/TR/2001/REC-SVG-20010904/DTD/svg10.dtd">
<svg version="1.0" xmlns="http://www.w3.org/2000/svg"
 width="700.000000pt" height="700.000000pt" viewBox="0 0 700.000000 700.000000"
 preserveAspectRatio="xMidYMid meet">
<metadata>
Created by potrace 1.11, written by Peter Selinger 2001-2013
</metadata>
<g transform="translate(0.000000,700.000000) scale(0.100000,-0.100000)"
fill="#000000" stroke="none">
<path d="M3319 6826 c-2 -2 -39 -6 -81 -10 -124 -10 -304 -37 -418 -61 -14 -3
-36 -8 -50 -11 -14 -3 -35 -7 -47 -10 -45 -9 -270 -76 -338 -100 -378 -135
-749 -350 -1051 -608 -109 -93 -342 -332 -425 -436 -364 -455 -590 -957 -688
-1525 -40 -232 -45 -305 -46 -615 0 -239 5 -348 20 -450 12 -87 28 -174 41
-230 9 -36 17 -72 19 -80 29 -133 108 -369 178 -530 113 -262 249 -499 410
-712 107 -143 151 -192 312 -353 437 -438 975 -742 1570 -888 55 -14 116 -28
135 -31 19 -3 46 -8 60 -11 14 -3 59 -10 100 -16 41 -5 86 -12 100 -14 160
-24 622 -24 771 0 13 2 49 6 80 10 49 5 223 34 302 50 171 35 537 152 634 204
10 5 59 29 108 52 197 93 526 310 677 446 120 108 159 144 228 214 158 159
235 249 347 405 313 437 514 933 588 1454 45 319 41 706 -11 1030 -9 52 -18
109 -20 125 -17 108 -124 489 -163 580 -100 232 -166 367 -244 495 -43 71
-182 276 -201 296 -6 7 -22 27 -36 46 -115 152 -358 395 -550 549 -431 346
-957 592 -1445 679 -33 5 -71 12 -85 15 -14 3 -38 7 -55 9 -101 14 -130 18
-168 22 -54 6 -553 15 -558 10z m526 -201 c182 -22 206 -26 311 -46 983 -188
1872 -894 2267 -1799 16 -36 33 -74 38 -85 102 -227 197 -620 225 -925 3 -36
7 -81 9 -100 5 -44 6 -383 1 -430 -2 -19 -7 -69 -10 -110 -4 -41 -11 -100 -16
-130 -5 -30 -12 -71 -15 -90 -3 -19 -10 -57 -15 -85 -6 -27 -12 -59 -14 -70
-2 -11 -11 -45 -19 -75 -97 -357 -226 -644 -420 -935 -51 -77 -161 -229 -177
-245 -3 -3 -30 -34 -60 -70 -72 -85 -62 -74 -161 -176 -146 -152 -276 -264
-434 -376 -44 -31 -84 -61 -90 -65 -5 -5 -53 -34 -105 -65 -320 -189 -620
-303 -990 -377 -80 -16 -89 -18 -150 -26 -30 -4 -63 -9 -74 -11 -10 -2 -53 -6
-95 -9 -42 -3 -93 -8 -113 -11 -48 -7 -386 -7 -460 0 -32 3 -82 8 -110 11
-473 46 -953 216 -1363 483 -210 137 -339 243 -535 441 -253 255 -433 506
-583 811 -54 111 -130 291 -141 335 -2 6 -6 17 -9 25 -8 21 -57 185 -62 207
-2 10 -12 54 -23 98 -19 74 -56 288 -66 380 -29 254 -25 632 8 842 3 21 9 56
12 78 55 379 222 806 452 1160 261 401 650 774 1062 1017 357 210 775 354
1175 404 28 3 61 8 75 10 14 2 72 7 130 10 58 4 106 8 108 9 6 5 386 -3 437
-10z"/>
<path d="M3328 6465 c-2 -1 -39 -6 -83 -10 -44 -3 -91 -8 -105 -10 -70 -9
-121 -18 -185 -31 -38 -8 -81 -17 -95 -20 -59 -12 -276 -77 -315 -94 -11 -5
-47 -19 -80 -31 -86 -31 -314 -141 -425 -207 -100 -58 -264 -168 -340 -227
-25 -19 -69 -51 -97 -72 -79 -57 -77 -66 10 -58 39 4 86 8 102 11 197 25 903
25 1110 -1 17 -2 57 -6 90 -10 33 -3 76 -7 95 -10 19 -2 58 -7 85 -11 175 -21
444 -69 640 -114 201 -47 636 -174 720 -210 67 -30 230 -89 233 -85 8 7 -226
311 -293 381 -5 6 -46 50 -90 99 -68 74 -160 162 -345 329 -32 29 -73 63 -200
165 -23 19 -48 40 -54 46 -6 5 -36 29 -66 53 -30 23 -60 46 -67 52 -7 5 -15
10 -18 10 -3 0 -24 12 -46 27 -33 22 -54 27 -109 29 -38 1 -70 1 -72 -1z"/>
<path d="M3675 6453 c6 -6 39 -32 75 -58 36 -27 79 -61 95 -76 17 -15 55 -48
85 -74 143 -124 353 -320 499 -466 275 -274 440 -471 612 -729 49 -74 93 -140
97 -146 4 -5 12 -19 18 -30 7 -11 39 -67 72 -125 126 -220 265 -511 378 -791
21 -54 42 -94 46 -90 7 8 15 48 24 127 3 28 7 52 9 55 25 41 26 695 1 850 -3
14 -7 50 -10 80 -15 137 -45 328 -82 525 -27 143 -35 179 -49 209 -15 31 -156
144 -320 257 -294 201 -738 384 -1080 444 -16 2 -41 7 -54 10 -13 2 -49 7 -80
11 -31 3 -65 8 -76 10 -50 10 -269 15 -260 7z"/>
<path d="M2038 5625 c-2 -2 -48 -6 -103 -9 -55 -4 -116 -9 -135 -11 -19 -2
-60 -7 -90 -10 -87 -10 -334 -53 -361 -64 -24 -9 -150 -128 -219 -206 -194
-220 -362 -559 -479 -965 -28 -99 -74 -282 -85 -340 -2 -14 -11 -56 -19 -95
-9 -38 -18 -83 -20 -100 -3 -16 -10 -54 -16 -84 -6 -29 -11 -56 -11 -58 0 -4
51 30 84 57 10 8 64 69 119 135 56 66 183 202 282 301 161 162 216 215 360
344 90 81 328 268 450 355 387 275 808 498 1227 651 101 36 126 50 96 51 -13
1 -95 9 -168 18 -19 3 -71 7 -115 11 -44 3 -107 8 -140 10 -65 5 -653 13 -657
9z"/>
<path d="M5734 5480 c3 -19 8 -52 12 -74 3 -21 7 -48 10 -59 9 -50 29 -220 39
-332 24 -275 24 -757 0 -980 -2 -22 -7 -68 -10 -103 -4 -35 -8 -71 -10 -80 -1
-9 -6 -44 -10 -77 -3 -33 -15 -112 -26 -175 -96 -565 -264 -1031 -471 -1308
-32 -42 -53 -79 -47 -80 5 -2 51 17 102 43 318 165 614 428 926 825 45 58 88
112 94 120 7 8 26 33 42 55 44 58 49 65 101 125 74 88 88 127 81 234 -3 50 -8
100 -10 111 -3 11 -8 56 -12 100 -4 44 -9 89 -11 100 -2 11 -5 40 -8 65 -9 77
-36 211 -62 310 -113 422 -327 795 -640 1117 -92 95 -95 97 -90 63z"/>
<path d="M3029 4978 c-5 -10 -3 -3008 2 -3008 3 0 344 338 758 752 l751 751
-752 754 c-414 414 -754 753 -755 753 -2 0 -4 -1 -4 -2z"/>
<path d="M1613 4621 c-65 -49 -127 -97 -138 -108 -11 -10 -33 -29 -50 -41 -96
-74 -414 -384 -572 -557 -86 -95 -87 -96 -173 -196 -68 -79 -143 -162 -151
-169 -4 -3 -16 -23 -28 -45 -18 -35 -20 -53 -16 -128 2 -49 7 -91 9 -95 3 -4
8 -35 11 -67 4 -33 9 -62 10 -65 2 -3 6 -28 10 -57 3 -28 17 -105 31 -170 14
-65 27 -129 30 -143 11 -54 65 -231 98 -321 72 -199 168 -395 281 -579 52 -83
219 -318 234 -330 4 -3 20 -22 35 -43 16 -20 32 -37 35 -37 4 0 4 28 0 63 -5
34 -11 98 -14 142 -4 44 -8 91 -10 104 -25 154 -26 893 -1 1086 2 17 7 57 10
90 9 85 16 136 21 165 3 14 8 36 10 50 3 14 8 45 11 70 3 25 8 48 10 51 2 3 6
21 9 40 42 240 181 692 387 1257 25 67 41 122 37 122 -5 0 -61 -40 -126 -89z"/>
<path d="M6537 3226 c-9 -13 -22 -29 -29 -37 -7 -8 -33 -39 -58 -69 -24 -30
-51 -62 -60 -71 -8 -9 -38 -43 -67 -76 -194 -223 -460 -481 -678 -657 -38 -31
-79 -64 -89 -73 -11 -8 -56 -42 -100 -74 -45 -32 -85 -62 -91 -66 -5 -5 -55
-38 -110 -74 -399 -263 -877 -476 -1347 -600 -72 -19 -122 -36 -115 -40 31
-18 338 -86 462 -104 21 -2 110 -12 185 -20 183 -20 507 -25 719 -12 69 5 127
10 130 11 3 2 40 7 81 10 41 4 84 9 95 11 11 2 43 7 70 10 72 9 115 38 251
173 126 125 227 250 314 392 72 114 180 326 230 445 23 55 45 109 50 120 36
82 127 399 143 500 36 219 48 325 36 325 -4 0 -14 -11 -22 -24z"/>
<path d="M1395 3103 c-5 -27 -10 -55 -11 -63 -5 -20 -23 -164 -29 -220 -22
-215 -22 -677 -1 -895 13 -129 19 -192 21 -205 1 -8 5 -53 9 -99 4 -47 9 -92
11 -100 1 -9 6 -41 10 -71 23 -170 35 -189 205 -321 241 -187 528 -357 755
-447 159 -63 352 -120 459 -136 21 -4 41 -8 45 -10 3 -2 29 -7 56 -10 28 -3
59 -7 70 -10 11 -2 56 -7 100 -10 44 -4 103 -9 130 -12 l50 -5 -149 143 c-316
303 -609 604 -746 767 -25 29 -53 63 -64 75 -147 167 -391 513 -506 716 -72
128 -185 361 -235 485 -51 127 -135 374 -150 443 -10 46 -21 40 -30 -15z"/>
<path d="M2256 1758 c28 -45 300 -391 373 -474 20 -22 63 -72 96 -110 102
-117 333 -353 430 -439 89 -79 272 -229 307 -253 38 -25 49 -27 142 -27 89 1
185 8 266 20 14 2 50 7 80 10 30 4 64 9 75 11 11 2 54 10 95 18 208 40 413
107 618 202 40 19 75 34 78 34 14 0 283 162 388 233 207 142 275 192 276 201
0 4 -19 6 -42 2 -24 -3 -63 -8 -88 -11 -25 -3 -63 -7 -85 -10 -224 -27 -720
-27 -985 0 -97 10 -156 16 -180 20 -14 2 -43 6 -65 10 -22 3 -92 14 -155 26
-63 11 -128 22 -145 25 -98 16 -468 116 -630 169 -267 88 -561 208 -778 317
-44 21 -75 33 -71 26z"/>
</g>
</svg>
